<svg viewBox="0 0 150 150" xmlns="http://www.w3.org/2000/svg"><g clip-path="url(#clip0)"><path d="M149.853 44.1c-.351-7.97-1.64-13.449-3.486-18.197-1.905-5.04-4.835-9.552-8.674-13.303a36.914 36.914 0 00-13.275-8.644C119.643 2.11 114.192.82 106.222.469 98.192.09 95.643 0 75.278 0S52.364.088 44.364.44c-7.97.35-13.45 1.64-18.196 3.486-5.041 1.905-9.553 4.835-13.304 8.674a36.932 36.932 0 00-8.645 13.274C2.373 30.651 1.084 36.101.733 44.071.352 52.1.263 54.649.263 75.015c0 20.365.089 22.914.44 30.914.351 7.97 1.641 13.449 3.488 18.197a36.989 36.989 0 008.673 13.303 36.895 36.895 0 0013.274 8.644c4.776 1.847 10.226 3.136 18.197 3.487 7.999.353 10.55.44 30.914.44 20.366 0 22.915-.087 30.915-.44 7.97-.351 13.449-1.64 18.196-3.487a38.362 38.362 0 0021.948-21.947c1.845-4.776 3.135-10.227 3.487-18.197.351-8 .439-10.549.439-30.914 0-20.366-.029-22.915-.381-30.915zm-13.508 61.243c-.322 7.325-1.553 11.281-2.578 13.919a24.884 24.884 0 01-14.242 14.241c-2.637 1.026-6.622 2.256-13.919 2.578-7.911.352-10.284.439-30.298.439-20.014 0-22.417-.087-30.3-.439-7.325-.322-11.281-1.552-13.919-2.578-3.251-1.202-6.211-3.106-8.614-5.597a23.326 23.326 0 01-5.597-8.615c-1.026-2.637-2.256-6.623-2.578-13.918-.353-7.912-.44-10.286-.44-30.3 0-20.014.088-22.416.44-30.298.322-7.326 1.552-11.282 2.578-13.92 1.202-3.252 3.106-6.211 5.627-8.615a23.284 23.284 0 018.614-5.596c2.638-1.025 6.623-2.256 13.919-2.579 7.912-.351 10.286-.44 30.299-.44 20.043 0 22.416.089 30.299.44 7.326.323 11.282 1.553 13.919 2.58 3.252 1.2 6.212 3.105 8.614 5.595a23.316 23.316 0 015.598 8.616c1.025 2.637 2.256 6.622 2.578 13.919.352 7.911.44 10.284.44 30.298 0 20.014-.088 22.358-.44 30.27z"/><path d="M75.278 36.482c-21.273 0-38.533 17.259-38.533 38.533s17.26 38.533 38.533 38.533c21.274 0 38.533-17.26 38.533-38.533 0-21.274-17.259-38.533-38.533-38.533zm0 63.528c-13.8 0-24.995-11.193-24.995-24.995 0-13.802 11.194-24.996 24.995-24.996 13.802 0 24.995 11.194 24.995 24.996 0 13.802-11.193 24.995-24.995 24.995zm49.053-65.052a8.997 8.997 0 11-17.993-.002 8.997 8.997 0 0117.993.002z"/></g></svg>