<svg viewBox="0 0 150 150" xmlns="http://www.w3.org/2000/svg"><path d="M75 150c41.356 0 75-33.644 75-75S116.356 0 75 0 0 33.644 0 75s33.644 75 75 75zM75 9.375c36.188 0 65.625 29.438 65.625 65.625 0 36.188-29.437 65.625-65.625 65.625S9.375 111.188 9.375 75 38.813 9.375 75 9.375z"/><path d="M49.35 88.469l9.8-4.256-2.75 2.756a4.69 4.69 0 00-1.375 3.312v18.344c0 4.2 5.075 6.238 8 3.313l9.837-9.838L94.3 112.819c2.775 1.387 6.131-.256 6.706-3.356l12.231-67.257c.644-3.619-2.918-6.544-6.325-5.206L27.437 68.106c-3.562 1.388-4.037 6.263-.812 8.319l18.337 11.7a4.678 4.678 0 004.388.344zM102.512 48.8l-9.606 52.844-18.875-9.431a4.677 4.677 0 00-5.406.88L64.4 97.32v-5.082l18.794-18.793c3.643-3.644-.457-9.657-5.182-7.613L47.906 78.894l-8.462-5.4L102.512 48.8z"/></svg>