<svg viewBox="0 0 150 150" xmlns="http://www.w3.org/2000/svg"><g clip-path="url(#clip0)"><path d="M144.719 86.831c4.475-37.669-2.15-61.45-14.1-72.206l.006-.006c-19.287-18.37-84.425-21.088-107.5.825C12.763 26.162 9.113 41.894 8.713 61.369c-.4 19.48-.875 55.975 33.13 65.875h.032l-.031 15.118s-.231 6.125 3.681 7.357c4.475 1.45 6.5-1.394 20.419-18.019 23.275 2.019 41.15-2.606 43.181-3.281 4.7-1.575 31.294-5.094 35.594-41.588zm-76.481 34.231S53.506 139.431 48.925 144.2c-1.5 1.55-3.144 1.406-3.119-1.669 0-2.019.113-25.1.113-25.1-28.831-8.262-27.131-39.337-26.819-55.594.313-16.262 3.288-29.58 12.063-38.55 20.243-18.98 77.35-14.737 91.9-1.062 17.787 15.769 11.456 60.319 11.493 61.837-3.656 30.463-25.206 32.394-29.168 33.713-1.694.562-17.413 4.606-37.15 3.287z"/><path d="M76.387 26.856c-2.406 0-2.406 3.75 0 3.781 18.67.144 34.044 13.157 34.213 37.025 0 2.52 3.687 2.488 3.656-.03h-.006c-.2-25.72-16.988-40.632-37.863-40.776z"/><path d="M100.944 63.706c-.056 2.487 3.625 2.606 3.656.087.306-14.18-8.438-25.862-24.869-27.093-2.406-.175-2.656 3.606-.256 3.781 14.25 1.081 21.756 10.806 21.469 23.225zm-3.937 16.132c-3.088-1.788-6.232-.675-7.532 1.08l-2.718 3.52c-1.382 1.787-3.963 1.55-3.963 1.55C63.957 81.005 58.92 61.293 58.92 61.293s-.231-2.669 1.494-4.1l3.4-2.813c1.7-1.35 2.775-4.6 1.044-7.794-4.625-8.356-7.732-11.237-9.313-13.45-1.662-2.08-4.162-2.55-6.762-1.143h-.057c-5.406 3.162-11.325 9.081-9.43 15.175 3.23 6.425 9.168 26.906 28.093 42.381 8.894 7.319 22.969 14.819 28.944 16.55l.056.088c5.887 1.962 11.612-4.188 14.669-9.757v-.043c1.356-2.694.906-5.244-1.075-6.913-3.513-3.425-8.813-7.206-12.975-9.637z"/><path d="M82.306 50.65c6.007.35 8.919 3.488 9.231 9.931.113 2.52 3.77 2.344 3.657-.175-.4-8.412-4.788-13.1-12.688-13.537-2.406-.144-2.631 3.637-.2 3.781z"/></g></svg>